# xmcd
#
# Track frame offsets: 
#        150
#        21975
#        41567
#        63717
#        89798
#        93337
#        111155
#        129350
#        160271
#        182244
#
# Disc length: 2576 seconds
#
# Revision: 5
# Processed by: cddbd v1.5.2PL0 Copyright (c) Steve Scherf et al.
# Submitted via: ExactAudioCopy v0.99pb5
#
DISCID=8a0a0e0a
DTITLE=Stuff - Stuff It!
DYEAR=1979
DGENRE=Fusion
TTITLE0=Mighty Love
TTITLE1=Dance With Me
TTITLE2=Since You've Been Gone (Baby,Baby,Sweet Baby)
TTITLE3=Always
TTITLE4=Stuff It
TTITLE5=Love Having You Around
TTITLE6=Rainbows
TTITLE7=Gordon's Theme
TTITLE8=Talkin' About My Love For You
TTITLE9=Do It Again
EXTD=YEAR: 1979
EXTT0=
EXTT1=
EXTT2=
EXTT3=
EXTT4=
EXTT5=
EXTT6=
EXTT7=
EXTT8=
EXTT9=
PLAYORDER=
